<mxfile host="app.diagrams.net" modified="2023-12-20T00:56:58.897Z" agent="Mozilla/5.0 (Windows NT 10.0; Win64; x64) AppleWebKit/537.36 (KHTML, like Gecko) Chrome/118.0.5993.732 YaBrowser/23.11.1.732 Yowser/2.5 Safari/537.36" version="22.1.11" etag="JpyDdrgbO_Ic-08H1b-H" type="github">
  <diagram name="Страница — 1" id="rax0nqCCXje8anrDHx_O">
    <mxGraphModel>
      <root>
        <mxCell id="0" />
        <mxCell id="1" parent="0" />
      </root>
    </mxGraphModel>
  </diagram>
</mxfile>
